<svg width="422" height="115" viewBox="0 0 422 115" fill="none" xmlns="http://www.w3.org/2000/svg">
<rect width="422" height="115" fill="white"/>
<path d="M122.624 35.69C119.831 35.69 117.798 33.771 117.798 30.864V21.63H119.622V30.978C119.622 32.593 120.933 33.961 122.624 33.961C124.296 33.961 125.645 32.593 125.645 30.978V21.63H127.469V30.864C127.469 33.771 125.398 35.69 122.624 35.69ZM129.445 31.491V29.914H136.475V31.491H129.445ZM138.469 35.5V21.63H142.953C145.917 21.63 147.988 23.739 147.988 26.456C147.988 29.192 145.917 31.301 142.934 31.301H140.293V35.5H138.469ZM142.82 23.321H140.293V29.572H142.82C144.872 29.572 146.126 28.185 146.126 26.456C146.126 24.689 144.872 23.321 142.82 23.321ZM149.993 35.5V24.385H151.817V35.5H149.993ZM149.613 21.668C149.613 20.908 150.126 20.395 150.905 20.395C151.741 20.395 152.216 20.908 152.216 21.668C152.216 22.447 151.741 22.96 150.905 22.96C150.088 22.96 149.613 22.447 149.613 21.668ZM159.638 35.728C156.294 35.728 153.805 33.144 153.805 29.952C153.805 26.646 156.37 24.157 159.638 24.157C162.07 24.157 164.027 25.544 164.844 27.539L163.229 28.223C162.564 26.722 161.291 25.829 159.619 25.829C157.339 25.829 155.629 27.653 155.629 29.952C155.629 32.213 157.339 34.056 159.676 34.056C161.443 34.056 162.678 32.973 163.286 31.529L164.939 32.251C164.084 34.284 162.222 35.728 159.638 35.728ZM166.785 35.5V21.44H168.571V30.408L174.29 24.385H176.532L172.048 29.097L176.646 35.5H174.575L170.756 30.18L168.571 32.46V35.5H166.785Z" fill="black"/>
<path d="M182.528 35.5V21.63H185.093L189.292 27.463L193.662 21.63H196.113V35.5H193.529V25.772L189.273 31.51L185.112 25.867V35.5H182.528ZM203.026 35.728C199.815 35.728 197.269 33.144 197.269 29.952C197.269 26.703 199.815 24.157 203.026 24.157C206.218 24.157 208.783 26.703 208.783 29.952C208.783 33.144 206.218 35.728 203.026 35.728ZM203.026 33.315C204.85 33.315 206.256 31.795 206.256 29.952C206.256 28.071 204.85 26.57 203.026 26.57C201.183 26.57 199.796 28.071 199.796 29.952C199.796 31.795 201.183 33.315 203.026 33.315ZM216.107 35.728C214.587 35.728 213.276 35.12 212.459 34.056V35.5H209.913V21.44H212.478V25.791C213.257 24.803 214.568 24.157 216.069 24.157C218.862 24.157 221.541 26.266 221.541 29.952C221.541 33.6 218.767 35.728 216.107 35.728ZM215.67 33.372C217.551 33.372 219.014 31.852 219.014 29.914C219.014 27.995 217.551 26.494 215.67 26.494C213.77 26.494 212.364 28.014 212.364 29.914C212.364 31.833 213.77 33.372 215.67 33.372ZM222.605 35.5V24.385H225.189V35.5H222.605ZM222.282 21.668C222.282 20.699 222.909 20.053 223.897 20.053C224.904 20.053 225.512 20.699 225.512 21.668C225.512 22.637 224.904 23.264 223.897 23.264C222.852 23.264 222.282 22.637 222.282 21.668ZM226.761 35.5V21.44H229.345V35.5H226.761ZM236.334 35.728C232.838 35.728 230.463 33.182 230.463 29.971C230.463 26.722 232.99 24.157 236.239 24.157C239.545 24.157 241.958 26.589 241.958 29.876V30.845H232.914C233.275 32.422 234.51 33.467 236.334 33.467C237.778 33.467 238.88 32.707 239.412 31.51L241.521 32.726C240.552 34.531 238.842 35.728 236.334 35.728ZM236.239 26.418C234.7 26.418 233.503 27.33 233.047 28.698H239.355C238.975 27.197 237.835 26.418 236.239 26.418ZM252.496 35.69C250.007 35.69 248.354 34.626 247.081 33.201L249.437 31.339C250.14 32.555 251.204 33.22 252.477 33.22C253.845 33.22 254.586 32.327 254.586 31.358C254.586 30.199 253.161 29.819 251.698 29.363C249.817 28.755 247.765 28.052 247.765 25.411C247.765 23.188 249.703 21.44 252.363 21.44C254.586 21.44 255.897 22.295 257.018 23.454L254.89 25.069C254.301 24.176 253.465 23.739 252.382 23.739C251.109 23.739 250.444 24.423 250.444 25.316C250.444 26.437 251.755 26.76 253.275 27.273C255.156 27.881 257.284 28.717 257.284 31.377C257.284 33.562 255.536 35.69 252.496 35.69ZM258.471 35.5V24.385H261.017V25.677C261.72 24.746 262.822 24.157 264.19 24.157C265.938 24.157 267.135 24.86 267.8 26.076C268.56 24.917 269.852 24.157 271.448 24.157C274.469 24.157 275.97 25.905 275.97 28.812V35.5H273.348V29.021C273.348 27.406 272.531 26.38 270.935 26.38C269.548 26.38 268.484 27.33 268.484 29.287V35.5H265.881V28.945C265.881 27.349 265.083 26.38 263.544 26.38C262.1 26.38 261.036 27.368 261.036 29.344V35.5H258.471ZM282.545 35.728C279.866 35.728 277.073 33.6 277.073 29.952C277.073 26.266 279.771 24.157 282.583 24.157C284.046 24.157 285.338 24.746 286.155 25.715V24.385H288.72V35.5H286.155V34.056C285.338 35.101 284.008 35.728 282.545 35.728ZM282.963 33.372C284.882 33.372 286.288 31.833 286.288 29.914C286.288 28.014 284.882 26.494 282.963 26.494C281.063 26.494 279.6 27.995 279.6 29.914C279.6 31.852 281.063 33.372 282.963 33.372ZM290.274 35.5V24.385H292.82V26.038C293.333 24.936 294.283 24.385 295.67 24.385C296.487 24.385 297.114 24.575 297.627 24.86L296.658 27.292C296.278 27.045 295.86 26.855 295.119 26.855C293.618 26.855 292.839 27.653 292.839 29.572V35.5H290.274ZM298.057 26.684V24.385H299.957V22.694L302.541 20.927V24.385H304.802V26.684H302.541V30.845C302.541 32.783 302.826 33.087 304.802 33.087V35.5H304.441C301.002 35.5 299.957 34.398 299.957 30.864V26.684H298.057Z" fill="#1F89FF"/>
<path d="M153.226 46.4329C153.226 45.2101 154.211 44.2352 155.426 44.2352C156.641 44.2352 157.626 45.2101 157.626 46.4329C157.626 47.6379 156.641 48.6303 155.426 48.6303C154.211 48.6303 153.226 47.6379 153.226 46.4329ZM153.525 51.3595H157.327V70.0036H153.525V51.3595Z" fill="black"/>
<path d="M171.198 44.4301C176.126 44.4301 179.558 47.8505 179.558 52.8305C179.558 57.8282 176.056 61.2665 171.074 61.2665H165.618V70.0037H161.675V44.4301H171.198ZM165.618 57.9346H170.142C173.574 57.9346 175.528 56.0739 175.528 52.8483C175.528 49.623 173.574 47.7798 170.159 47.7798H165.618V57.9346Z" fill="black"/>
<path d="M182.261 44.4301H186.028V54.4789H186.116C187.137 52.2989 189.161 51.0406 191.977 51.0406C196.043 51.0406 198.472 53.7699 198.472 57.9879V70.0037H194.653V58.7321C194.653 55.9854 193.28 54.337 190.604 54.337C187.788 54.337 186.063 56.2865 186.063 59.2284V70.0037H182.261V44.4301Z" fill="black"/>
<path d="M201.129 60.6816C201.129 54.6915 204.631 51.0228 209.912 51.0228C215.192 51.0228 218.695 54.6915 218.695 60.6816C218.695 66.6895 215.21 70.3581 209.912 70.3581C204.614 70.3581 201.129 66.6895 201.129 60.6816ZM214.822 60.6816C214.822 56.5525 212.886 54.1777 209.912 54.1777C206.937 54.1777 205.001 56.5525 205.001 60.6816C205.001 64.8288 206.937 67.2036 209.912 67.2036C212.904 67.2036 214.822 64.8288 214.822 60.6816Z" fill="black"/>
<path d="M221.528 51.3595H225.154V54.4789H225.242C226.246 52.3523 228.217 51.0406 231.069 51.0406C235.152 51.0406 237.493 53.6636 237.493 57.9345V70.0036H233.673V58.6791C233.673 55.879 232.371 54.337 229.731 54.337C227.055 54.337 225.331 56.251 225.331 59.1399V70.0036H221.528V51.3595Z" fill="black"/>
<path d="M256.852 64.5273C256.324 67.93 253.121 70.3581 248.879 70.3581C243.44 70.3581 240.149 66.6543 240.149 60.7701C240.149 54.9219 243.493 51.0228 248.721 51.0228C253.86 51.0228 257.064 54.6737 257.064 60.3271V61.6388H243.986V61.8692C243.986 65.1122 245.922 67.2566 248.967 67.2566C251.132 67.2566 252.734 66.1579 253.244 64.5273H256.852ZM244.003 58.9625H253.262C253.174 56.1094 251.378 54.1066 248.721 54.1066C246.063 54.1066 244.197 56.1447 244.003 58.9625Z" fill="black"/>
<path d="M276.55 57.5626C276.55 49.0025 280.317 43.934 286.671 43.934C291.212 43.934 294.715 46.61 295.472 50.6331H291.511C290.825 48.5065 289.065 47.2656 286.636 47.2656C282.605 47.2656 280.387 50.9876 280.335 57.35H280.405C281.426 55.0282 283.996 53.2205 287.446 53.2205C292.303 53.2205 295.806 56.8003 295.806 61.6388C295.806 66.778 291.899 70.5 286.53 70.5C281.356 70.5 276.55 66.8313 276.55 57.5626ZM291.881 61.7806C291.881 58.6791 289.646 56.4462 286.53 56.4462C283.415 56.4462 281.109 58.6613 281.109 61.6917C281.109 64.74 283.468 67.1503 286.477 67.1503C289.487 67.1503 291.881 64.7755 291.881 61.7806Z" fill="black"/>
<path d="M142.845 49.196C140.579 49.0272 138.657 50.4705 137.584 50.4705C136.496 50.4705 134.818 49.2324 133.039 49.2663C130.703 49.3007 128.55 50.6349 127.345 52.7409C124.919 56.9814 126.726 63.2649 129.089 66.7058C130.245 68.3872 131.624 70.282 133.435 70.213C135.178 70.1439 135.838 69.0777 137.945 69.0777C140.051 69.0777 140.645 70.213 142.488 70.179C144.364 70.1439 145.553 68.4628 146.701 66.7721C148.029 64.8205 148.574 62.9308 148.607 62.831C148.565 62.8151 144.949 61.4183 144.913 57.2236C144.881 53.7167 147.756 52.031 147.887 51.9498C146.255 49.5292 143.733 49.2623 142.845 49.196Z" fill="black"/>
<path d="M141.447 46.9245C142.409 45.7533 143.057 44.1223 142.879 42.5C141.493 42.5553 139.818 43.429 138.825 44.5995C137.935 45.6363 137.154 47.2968 137.366 48.886C138.91 49.0061 140.485 48.0964 141.447 46.9245Z" fill="black"/>
<path d="M268.849 44.43L263.29 48.4076V52.1885L268.796 48.3646H268.884V70.0036H272.739V44.43H268.849Z" fill="black"/>
<rect x="126" y="74.5" width="170" height="21" rx="10.5" fill="#EC5E00"/>
<path d="M139.91 90.692C138.63 90.692 137.51 90.228 136.854 89.396V94.804H134.71V81.14H136.854V82.388C137.51 81.508 138.614 80.948 139.894 80.948C142.246 80.948 144.502 82.724 144.502 85.828C144.502 88.9 142.166 90.692 139.91 90.692ZM139.558 88.708C141.142 88.708 142.374 87.428 142.374 85.796C142.374 84.18 141.142 82.916 139.558 82.916C137.942 82.916 136.774 84.196 136.774 85.796C136.774 87.412 137.942 88.708 139.558 88.708ZM150.02 90.692C147.316 90.692 145.172 88.516 145.172 85.828C145.172 83.092 147.316 80.948 150.02 80.948C152.708 80.948 154.868 83.092 154.868 85.828C154.868 88.516 152.708 90.692 150.02 90.692ZM150.02 88.66C151.556 88.66 152.74 87.38 152.74 85.828C152.74 84.244 151.556 82.98 150.02 82.98C148.468 82.98 147.3 84.244 147.3 85.828C147.3 87.38 148.468 88.66 150.02 88.66ZM155.819 90.5V81.14H157.963V82.532C158.395 81.604 159.195 81.14 160.363 81.14C161.051 81.14 161.579 81.3 162.011 81.54L161.195 83.588C160.875 83.38 160.523 83.22 159.899 83.22C158.635 83.22 157.979 83.892 157.979 85.508V90.5H155.819ZM166.632 90.5V81.14H168.776V82.292C169.4 81.476 170.36 80.948 171.576 80.948C173.928 80.948 175.288 82.404 175.288 84.948V90.5H173.096V85.172C173.096 83.716 172.392 82.82 170.984 82.82C169.752 82.82 168.792 83.716 168.792 85.364V90.5H166.632ZM184.97 81.14V90.5H182.826V89.428C182.234 90.212 181.338 90.692 180.138 90.692C177.898 90.692 176.538 89.236 176.538 86.692V81.14H178.73V86.468C178.73 87.924 179.37 88.82 180.73 88.82C181.93 88.82 182.81 87.924 182.81 86.276V81.14H184.97ZM190.866 90.692C187.922 90.692 185.922 88.548 185.922 85.844C185.922 83.108 188.05 80.948 190.786 80.948C193.57 80.948 195.602 82.996 195.602 85.764V86.58H187.986C188.29 87.908 189.33 88.788 190.866 88.788C192.082 88.788 193.01 88.148 193.458 87.14L195.234 88.164C194.418 89.684 192.978 90.692 190.866 90.692ZM190.786 82.852C189.49 82.852 188.482 83.62 188.098 84.772H193.41C193.09 83.508 192.13 82.852 190.786 82.852ZM200.089 90.692C197.993 90.692 196.681 89.892 195.929 88.42L197.929 87.46C198.377 88.34 199.161 88.82 200.185 88.82C201.257 88.82 201.785 88.308 201.785 87.684C201.785 86.996 200.745 86.868 199.593 86.612C197.993 86.276 196.313 85.764 196.313 83.796C196.313 82.292 197.769 80.932 199.993 80.932C201.897 80.932 203.097 81.668 203.817 82.868L201.977 83.796C201.593 83.14 200.889 82.724 199.993 82.724C198.969 82.724 198.489 83.204 198.489 83.732C198.489 84.356 199.225 84.516 200.633 84.82C202.169 85.124 203.929 85.668 203.929 87.636C203.929 88.948 202.761 90.692 200.089 90.692ZM204.358 83.076V81.14H205.958V79.716L208.134 78.228V81.14H210.038V83.076H208.134V86.58C208.134 88.212 208.374 88.468 210.038 88.468V90.5H209.734C206.838 90.5 205.958 89.572 205.958 86.596V83.076H204.358ZM211.085 90.5V81.14H213.229V82.532C213.661 81.604 214.461 81.14 215.629 81.14C216.317 81.14 216.845 81.3 217.277 81.54L216.461 83.588C216.141 83.38 215.789 83.22 215.165 83.22C213.901 83.22 213.245 83.892 213.245 85.508V90.5H211.085ZM221.967 90.692C219.711 90.692 217.359 88.9 217.359 85.828C217.359 82.724 219.631 80.948 221.999 80.948C223.231 80.948 224.319 81.444 225.007 82.26V81.14H227.167V90.5H225.007V89.284C224.319 90.164 223.199 90.692 221.967 90.692ZM222.319 88.708C223.935 88.708 225.119 87.412 225.119 85.796C225.119 84.196 223.935 82.916 222.319 82.916C220.719 82.916 219.487 84.18 219.487 85.796C219.487 87.428 220.719 88.708 222.319 88.708ZM236.879 90.692C234.143 90.692 232.015 88.516 232.015 85.828C232.015 83.092 234.143 80.948 236.879 80.948C238.975 80.948 240.623 82.148 241.343 83.844L239.407 84.66C238.975 83.636 238.047 82.98 236.895 82.98C235.311 82.98 234.127 84.244 234.127 85.828C234.127 87.38 235.311 88.66 236.911 88.66C238.127 88.66 239.007 87.94 239.439 86.916L241.375 87.748C240.639 89.476 239.055 90.692 236.879 90.692ZM250.626 81.14V90.5H248.482V89.428C247.89 90.212 246.994 90.692 245.794 90.692C243.554 90.692 242.194 89.236 242.194 86.692V81.14H244.386V86.468C244.386 87.924 245.026 88.82 246.386 88.82C247.586 88.82 248.466 87.924 248.466 86.276V81.14H250.626ZM256.522 90.692C253.578 90.692 251.578 88.548 251.578 85.844C251.578 83.108 253.706 80.948 256.442 80.948C259.226 80.948 261.258 82.996 261.258 85.764V86.58H253.642C253.946 87.908 254.986 88.788 256.522 88.788C257.738 88.788 258.666 88.148 259.114 87.14L260.89 88.164C260.074 89.684 258.634 90.692 256.522 90.692ZM256.442 82.852C255.146 82.852 254.138 83.62 253.754 84.772H259.066C258.746 83.508 257.786 82.852 256.442 82.852ZM262.226 90.5V81.14H264.37V82.292C264.994 81.476 265.954 80.948 267.17 80.948C269.522 80.948 270.882 82.404 270.882 84.948V90.5H268.69V85.172C268.69 83.716 267.986 82.82 266.578 82.82C265.346 82.82 264.386 83.716 264.386 85.364V90.5H262.226ZM271.39 83.076V81.14H272.99V79.716L275.166 78.228V81.14H277.07V83.076H275.166V86.58C275.166 88.212 275.406 88.468 277.07 88.468V90.5H276.766C273.87 90.5 272.99 89.572 272.99 86.596V83.076H271.39ZM282.108 90.692C279.852 90.692 277.5 88.9 277.5 85.828C277.5 82.724 279.772 80.948 282.14 80.948C283.372 80.948 284.46 81.444 285.148 82.26V81.14H287.308V90.5H285.148V89.284C284.46 90.164 283.34 90.692 282.108 90.692ZM282.46 88.708C284.076 88.708 285.26 87.412 285.26 85.796C285.26 84.196 284.076 82.916 282.46 82.916C280.86 82.916 279.628 84.18 279.628 85.796C279.628 87.428 280.86 88.708 282.46 88.708Z" fill="white"/>
</svg>
