<svg width="422" height="115" viewBox="0 0 422 115" fill="none" xmlns="http://www.w3.org/2000/svg">
<rect width="422" height="115" fill="white"/>
<path d="M112.521 31.69C109.728 31.69 107.695 29.771 107.695 26.864V17.63H109.519V26.978C109.519 28.593 110.83 29.961 112.521 29.961C114.193 29.961 115.542 28.593 115.542 26.978V17.63H117.366V26.864C117.366 29.771 115.295 31.69 112.521 31.69ZM119.342 27.491V25.914H126.372V27.491H119.342ZM128.366 31.5V17.63H132.85C135.814 17.63 137.885 19.739 137.885 22.456C137.885 25.192 135.814 27.301 132.831 27.301H130.19V31.5H128.366ZM132.717 19.321H130.19V25.572H132.717C134.769 25.572 136.023 24.185 136.023 22.456C136.023 20.689 134.769 19.321 132.717 19.321ZM139.89 31.5V20.385H141.714V31.5H139.89ZM139.51 17.668C139.51 16.908 140.023 16.395 140.802 16.395C141.638 16.395 142.113 16.908 142.113 17.668C142.113 18.447 141.638 18.96 140.802 18.96C139.985 18.96 139.51 18.447 139.51 17.668ZM149.535 31.728C146.191 31.728 143.702 29.144 143.702 25.952C143.702 22.646 146.267 20.157 149.535 20.157C151.967 20.157 153.924 21.544 154.741 23.539L153.126 24.223C152.461 22.722 151.188 21.829 149.516 21.829C147.236 21.829 145.526 23.653 145.526 25.952C145.526 28.213 147.236 30.056 149.573 30.056C151.34 30.056 152.575 28.973 153.183 27.529L154.836 28.251C153.981 30.284 152.119 31.728 149.535 31.728ZM156.682 31.5V17.44H158.468V26.408L164.187 20.385H166.429L161.945 25.097L166.543 31.5H164.472L160.653 26.18L158.468 28.46V31.5H156.682Z" fill="black"/>
<path d="M172.425 31.5V17.63H174.99L179.189 23.463L183.559 17.63H186.01V31.5H183.426V21.772L179.17 27.51L175.009 21.867V31.5H172.425ZM192.923 31.728C189.712 31.728 187.166 29.144 187.166 25.952C187.166 22.703 189.712 20.157 192.923 20.157C196.115 20.157 198.68 22.703 198.68 25.952C198.68 29.144 196.115 31.728 192.923 31.728ZM192.923 29.315C194.747 29.315 196.153 27.795 196.153 25.952C196.153 24.071 194.747 22.57 192.923 22.57C191.08 22.57 189.693 24.071 189.693 25.952C189.693 27.795 191.08 29.315 192.923 29.315ZM206.004 31.728C204.484 31.728 203.173 31.12 202.356 30.056V31.5H199.81V17.44H202.375V21.791C203.154 20.803 204.465 20.157 205.966 20.157C208.759 20.157 211.438 22.266 211.438 25.952C211.438 29.6 208.664 31.728 206.004 31.728ZM205.567 29.372C207.448 29.372 208.911 27.852 208.911 25.914C208.911 23.995 207.448 22.494 205.567 22.494C203.667 22.494 202.261 24.014 202.261 25.914C202.261 27.833 203.667 29.372 205.567 29.372ZM212.502 31.5V20.385H215.086V31.5H212.502ZM212.179 17.668C212.179 16.699 212.806 16.053 213.794 16.053C214.801 16.053 215.409 16.699 215.409 17.668C215.409 18.637 214.801 19.264 213.794 19.264C212.749 19.264 212.179 18.637 212.179 17.668ZM216.658 31.5V17.44H219.242V31.5H216.658ZM226.231 31.728C222.735 31.728 220.36 29.182 220.36 25.971C220.36 22.722 222.887 20.157 226.136 20.157C229.442 20.157 231.855 22.589 231.855 25.876V26.845H222.811C223.172 28.422 224.407 29.467 226.231 29.467C227.675 29.467 228.777 28.707 229.309 27.51L231.418 28.726C230.449 30.531 228.739 31.728 226.231 31.728ZM226.136 22.418C224.597 22.418 223.4 23.33 222.944 24.698H229.252C228.872 23.197 227.732 22.418 226.136 22.418ZM242.697 31.69C239.809 31.69 237.7 29.961 237.7 26.712V17.63H240.284V26.864C240.284 28.232 241.31 29.296 242.678 29.296C244.027 29.296 245.11 28.232 245.11 26.864V17.63H247.694V26.712C247.694 29.961 245.566 31.69 242.697 31.69ZM249.221 31.5V17.44H251.805V31.5H249.221ZM252.886 22.684V20.385H254.786V18.694L257.37 16.927V20.385H259.631V22.684H257.37V26.845C257.37 28.783 257.655 29.087 259.631 29.087V31.5H259.27C255.831 31.5 254.786 30.398 254.786 26.864V22.684H252.886ZM260.874 31.5V20.385H263.458V31.5H260.874ZM260.551 17.668C260.551 16.699 261.178 16.053 262.166 16.053C263.173 16.053 263.781 16.699 263.781 17.668C263.781 18.637 263.173 19.264 262.166 19.264C261.121 19.264 260.551 18.637 260.551 17.668ZM264.937 31.5V20.385H267.483V21.677C268.186 20.746 269.288 20.157 270.656 20.157C272.404 20.157 273.601 20.86 274.266 22.076C275.026 20.917 276.318 20.157 277.914 20.157C280.935 20.157 282.436 21.905 282.436 24.812V31.5H279.814V25.021C279.814 23.406 278.997 22.38 277.401 22.38C276.014 22.38 274.95 23.33 274.95 25.287V31.5H272.347V24.945C272.347 23.349 271.549 22.38 270.01 22.38C268.566 22.38 267.502 23.368 267.502 25.344V31.5H264.937ZM289.011 31.728C286.332 31.728 283.539 29.6 283.539 25.952C283.539 22.266 286.237 20.157 289.049 20.157C290.512 20.157 291.804 20.746 292.621 21.715V20.385H295.186V31.5H292.621V30.056C291.804 31.101 290.474 31.728 289.011 31.728ZM289.429 29.372C291.348 29.372 292.754 27.833 292.754 25.914C292.754 24.014 291.348 22.494 289.429 22.494C287.529 22.494 286.066 23.995 286.066 25.914C286.066 27.852 287.529 29.372 289.429 29.372ZM296.248 22.684V20.385H298.148V18.694L300.732 16.927V20.385H302.993V22.684H300.732V26.845C300.732 28.783 301.017 29.087 302.993 29.087V31.5H302.632C299.193 31.5 298.148 30.398 298.148 26.864V22.684H296.248ZM309.375 31.728C305.879 31.728 303.504 29.182 303.504 25.971C303.504 22.722 306.031 20.157 309.28 20.157C312.586 20.157 314.999 22.589 314.999 25.876V26.845H305.955C306.316 28.422 307.551 29.467 309.375 29.467C310.819 29.467 311.921 28.707 312.453 27.51L314.562 28.726C313.593 30.531 311.883 31.728 309.375 31.728ZM309.28 22.418C307.741 22.418 306.544 23.33 306.088 24.698H312.396C312.016 23.197 310.876 22.418 309.28 22.418Z" fill="#1F89FF"/>
<g clip-path="url(#clip0_5040_148012)">
<path d="M124.532 44.4329C124.532 43.2101 125.517 42.2352 126.732 42.2352C127.947 42.2352 128.932 43.2101 128.932 44.4329C128.932 45.6379 127.947 46.6303 126.732 46.6303C125.517 46.6303 124.532 45.6379 124.532 44.4329ZM124.831 49.3595H128.633V68.0036H124.831V49.3595Z" fill="black"/>
<path d="M142.504 42.4301C147.432 42.4301 150.864 45.8505 150.864 50.8305C150.864 55.8282 147.362 59.2665 142.381 59.2665H136.924V68.0037H132.981V42.4301H142.504ZM136.924 55.9346H141.448C144.88 55.9346 146.834 54.0739 146.834 50.8483C146.834 47.623 144.88 45.7798 141.465 45.7798H136.924V55.9346Z" fill="black"/>
<path d="M153.567 42.4301H157.334V52.4789H157.422C158.443 50.2989 160.467 49.0406 163.284 49.0406C167.35 49.0406 169.778 51.7699 169.778 55.9879V68.0037H165.959V56.7321C165.959 53.9854 164.586 52.337 161.911 52.337C159.094 52.337 157.369 54.2865 157.369 57.2284V68.0037H153.567V42.4301Z" fill="black"/>
<path d="M172.435 58.6816C172.435 52.6915 175.937 49.0228 181.218 49.0228C186.498 49.0228 190.001 52.6915 190.001 58.6816C190.001 64.6895 186.516 68.3581 181.218 68.3581C175.92 68.3581 172.435 64.6895 172.435 58.6816ZM186.128 58.6816C186.128 54.5525 184.192 52.1777 181.218 52.1777C178.243 52.1777 176.307 54.5525 176.307 58.6816C176.307 62.8288 178.243 65.2036 181.218 65.2036C184.21 65.2036 186.128 62.8288 186.128 58.6816Z" fill="black"/>
<path d="M192.835 49.3595H196.461V52.4789H196.548C197.552 50.3523 199.523 49.0406 202.375 49.0406C206.458 49.0406 208.799 51.6636 208.799 55.9345V68.0036H204.979V56.6791C204.979 53.879 203.677 52.337 201.037 52.337C198.361 52.337 196.637 54.251 196.637 57.1399V68.0036H192.835V49.3595Z" fill="black"/>
<path d="M228.159 62.5273C227.631 65.93 224.427 68.3581 220.185 68.3581C214.746 68.3581 211.455 64.6543 211.455 58.7701C211.455 52.9219 214.799 49.0228 220.027 49.0228C225.166 49.0228 228.37 52.6737 228.37 58.3271V59.6388H215.292V59.8692C215.292 63.1122 217.228 65.2566 220.273 65.2566C222.438 65.2566 224.04 64.1579 224.55 62.5273H228.159ZM215.309 56.9625H224.568C224.48 54.1094 222.685 52.1066 220.027 52.1066C217.369 52.1066 215.503 54.1447 215.309 56.9625Z" fill="black"/>
<path d="M247.856 55.5626C247.856 47.0025 251.623 41.934 257.977 41.934C262.518 41.934 266.021 44.61 266.778 48.6331H262.817C262.131 46.5065 260.371 45.2656 257.942 45.2656C253.911 45.2656 251.693 48.9876 251.641 55.35H251.711C252.732 53.0282 255.302 51.2205 258.752 51.2205C263.609 51.2205 267.112 54.8003 267.112 59.6388C267.112 64.778 263.205 68.5 257.836 68.5C252.662 68.5 247.856 64.8313 247.856 55.5626ZM263.187 59.7806C263.187 56.6791 260.952 54.4462 257.836 54.4462C254.721 54.4462 252.415 56.6613 252.415 59.6917C252.415 62.74 254.774 65.1503 257.783 65.1503C260.793 65.1503 263.187 62.7755 263.187 59.7806Z" fill="black"/>
<path d="M285.368 42.4301C290.296 42.4301 293.728 45.8505 293.728 50.8305C293.728 55.8282 290.226 59.2665 285.245 59.2665H279.788V68.0037H275.845V42.4301H285.368ZM279.788 55.9346H284.312C287.744 55.9346 289.698 54.0739 289.698 50.8483C289.698 47.623 287.744 45.7798 284.329 45.7798H279.788V55.9346Z" fill="black"/>
<path d="M296.723 49.3595H300.349V52.5318H300.437C301.053 50.3523 302.708 49.0584 304.891 49.0584C305.436 49.0584 305.911 49.1469 306.193 49.2002V52.7622C305.894 52.6382 305.225 52.5496 304.485 52.5496C302.039 52.5496 300.525 54.198 300.525 56.8384V68.0036H296.723V49.3595Z" fill="black"/>
<path d="M306.934 58.6816C306.934 52.6915 310.436 49.0228 315.717 49.0228C320.997 49.0228 324.5 52.6915 324.5 58.6816C324.5 64.6895 321.015 68.3581 315.717 68.3581C310.419 68.3581 306.934 64.6895 306.934 58.6816ZM320.628 58.6816C320.628 54.5525 318.691 52.1777 315.717 52.1777C312.742 52.1777 310.806 54.5525 310.806 58.6816C310.806 62.8288 312.742 65.2036 315.717 65.2036C318.709 65.2036 320.628 62.8288 320.628 58.6816Z" fill="black"/>
<path d="M114.151 47.196C111.885 47.0272 109.963 48.4705 108.89 48.4705C107.802 48.4705 106.124 47.2324 104.345 47.2663C102.009 47.3007 99.856 48.6349 98.6514 50.7409C96.2251 54.9814 98.0321 61.2649 100.395 64.7058C101.551 66.3872 102.93 68.282 104.741 68.213C106.484 68.1439 107.144 67.0777 109.251 67.0777C111.357 67.0777 111.951 68.213 113.794 68.179C115.671 68.1439 116.859 66.4628 118.007 64.7721C119.335 62.8205 119.881 60.9308 119.913 60.831C119.871 60.8151 116.256 59.4183 116.219 55.2236C116.187 51.7167 119.062 50.031 119.193 49.9498C117.561 47.5292 115.04 47.2623 114.151 47.196Z" fill="black"/>
<path d="M112.753 44.9245C113.716 43.7533 114.363 42.1223 114.185 40.5C112.8 40.5553 111.124 41.429 110.131 42.5995C109.241 43.6363 108.46 45.2968 108.672 46.886C110.216 47.0061 111.792 46.0964 112.753 44.9245Z" fill="black"/>
<path d="M240.155 42.43L234.596 46.4076V50.1885L240.102 46.3646H240.19V68.0036H244.045V42.43H240.155Z" fill="black"/>
</g>
<rect x="126" y="76.5" width="170" height="21" rx="10.5" fill="#EC5E00"/>
<path d="M139.91 92.692C138.63 92.692 137.51 92.228 136.854 91.396V96.804H134.71V83.14H136.854V84.388C137.51 83.508 138.614 82.948 139.894 82.948C142.246 82.948 144.502 84.724 144.502 87.828C144.502 90.9 142.166 92.692 139.91 92.692ZM139.558 90.708C141.142 90.708 142.374 89.428 142.374 87.796C142.374 86.18 141.142 84.916 139.558 84.916C137.942 84.916 136.774 86.196 136.774 87.796C136.774 89.412 137.942 90.708 139.558 90.708ZM150.02 92.692C147.316 92.692 145.172 90.516 145.172 87.828C145.172 85.092 147.316 82.948 150.02 82.948C152.708 82.948 154.868 85.092 154.868 87.828C154.868 90.516 152.708 92.692 150.02 92.692ZM150.02 90.66C151.556 90.66 152.74 89.38 152.74 87.828C152.74 86.244 151.556 84.98 150.02 84.98C148.468 84.98 147.3 86.244 147.3 87.828C147.3 89.38 148.468 90.66 150.02 90.66ZM155.819 92.5V83.14H157.963V84.532C158.395 83.604 159.195 83.14 160.363 83.14C161.051 83.14 161.579 83.3 162.011 83.54L161.195 85.588C160.875 85.38 160.523 85.22 159.899 85.22C158.635 85.22 157.979 85.892 157.979 87.508V92.5H155.819ZM166.632 92.5V83.14H168.776V84.292C169.4 83.476 170.36 82.948 171.576 82.948C173.928 82.948 175.288 84.404 175.288 86.948V92.5H173.096V87.172C173.096 85.716 172.392 84.82 170.984 84.82C169.752 84.82 168.792 85.716 168.792 87.364V92.5H166.632ZM184.97 83.14V92.5H182.826V91.428C182.234 92.212 181.338 92.692 180.138 92.692C177.898 92.692 176.538 91.236 176.538 88.692V83.14H178.73V88.468C178.73 89.924 179.37 90.82 180.73 90.82C181.93 90.82 182.81 89.924 182.81 88.276V83.14H184.97ZM190.866 92.692C187.922 92.692 185.922 90.548 185.922 87.844C185.922 85.108 188.05 82.948 190.786 82.948C193.57 82.948 195.602 84.996 195.602 87.764V88.58H187.986C188.29 89.908 189.33 90.788 190.866 90.788C192.082 90.788 193.01 90.148 193.458 89.14L195.234 90.164C194.418 91.684 192.978 92.692 190.866 92.692ZM190.786 84.852C189.49 84.852 188.482 85.62 188.098 86.772H193.41C193.09 85.508 192.13 84.852 190.786 84.852ZM200.089 92.692C197.993 92.692 196.681 91.892 195.929 90.42L197.929 89.46C198.377 90.34 199.161 90.82 200.185 90.82C201.257 90.82 201.785 90.308 201.785 89.684C201.785 88.996 200.745 88.868 199.593 88.612C197.993 88.276 196.313 87.764 196.313 85.796C196.313 84.292 197.769 82.932 199.993 82.932C201.897 82.932 203.097 83.668 203.817 84.868L201.977 85.796C201.593 85.14 200.889 84.724 199.993 84.724C198.969 84.724 198.489 85.204 198.489 85.732C198.489 86.356 199.225 86.516 200.633 86.82C202.169 87.124 203.929 87.668 203.929 89.636C203.929 90.948 202.761 92.692 200.089 92.692ZM204.358 85.076V83.14H205.958V81.716L208.134 80.228V83.14H210.038V85.076H208.134V88.58C208.134 90.212 208.374 90.468 210.038 90.468V92.5H209.734C206.838 92.5 205.958 91.572 205.958 88.596V85.076H204.358ZM211.085 92.5V83.14H213.229V84.532C213.661 83.604 214.461 83.14 215.629 83.14C216.317 83.14 216.845 83.3 217.277 83.54L216.461 85.588C216.141 85.38 215.789 85.22 215.165 85.22C213.901 85.22 213.245 85.892 213.245 87.508V92.5H211.085ZM221.967 92.692C219.711 92.692 217.359 90.9 217.359 87.828C217.359 84.724 219.631 82.948 221.999 82.948C223.231 82.948 224.319 83.444 225.007 84.26V83.14H227.167V92.5H225.007V91.284C224.319 92.164 223.199 92.692 221.967 92.692ZM222.319 90.708C223.935 90.708 225.119 89.412 225.119 87.796C225.119 86.196 223.935 84.916 222.319 84.916C220.719 84.916 219.487 86.18 219.487 87.796C219.487 89.428 220.719 90.708 222.319 90.708ZM236.879 92.692C234.143 92.692 232.015 90.516 232.015 87.828C232.015 85.092 234.143 82.948 236.879 82.948C238.975 82.948 240.623 84.148 241.343 85.844L239.407 86.66C238.975 85.636 238.047 84.98 236.895 84.98C235.311 84.98 234.127 86.244 234.127 87.828C234.127 89.38 235.311 90.66 236.911 90.66C238.127 90.66 239.007 89.94 239.439 88.916L241.375 89.748C240.639 91.476 239.055 92.692 236.879 92.692ZM250.626 83.14V92.5H248.482V91.428C247.89 92.212 246.994 92.692 245.794 92.692C243.554 92.692 242.194 91.236 242.194 88.692V83.14H244.386V88.468C244.386 89.924 245.026 90.82 246.386 90.82C247.586 90.82 248.466 89.924 248.466 88.276V83.14H250.626ZM256.522 92.692C253.578 92.692 251.578 90.548 251.578 87.844C251.578 85.108 253.706 82.948 256.442 82.948C259.226 82.948 261.258 84.996 261.258 87.764V88.58H253.642C253.946 89.908 254.986 90.788 256.522 90.788C257.738 90.788 258.666 90.148 259.114 89.14L260.89 90.164C260.074 91.684 258.634 92.692 256.522 92.692ZM256.442 84.852C255.146 84.852 254.138 85.62 253.754 86.772H259.066C258.746 85.508 257.786 84.852 256.442 84.852ZM262.226 92.5V83.14H264.37V84.292C264.994 83.476 265.954 82.948 267.17 82.948C269.522 82.948 270.882 84.404 270.882 86.948V92.5H268.69V87.172C268.69 85.716 267.986 84.82 266.578 84.82C265.346 84.82 264.386 85.716 264.386 87.364V92.5H262.226ZM271.39 85.076V83.14H272.99V81.716L275.166 80.228V83.14H277.07V85.076H275.166V88.58C275.166 90.212 275.406 90.468 277.07 90.468V92.5H276.766C273.87 92.5 272.99 91.572 272.99 88.596V85.076H271.39ZM282.108 92.692C279.852 92.692 277.5 90.9 277.5 87.828C277.5 84.724 279.772 82.948 282.14 82.948C283.372 82.948 284.46 83.444 285.148 84.26V83.14H287.308V92.5H285.148V91.284C284.46 92.164 283.34 92.692 282.108 92.692ZM282.46 90.708C284.076 90.708 285.26 89.412 285.26 87.796C285.26 86.196 284.076 84.916 282.46 84.916C280.86 84.916 279.628 86.18 279.628 87.796C279.628 89.428 280.86 90.708 282.46 90.708Z" fill="white"/>
<defs>
<clipPath id="clip0_5040_148012">
<rect width="227" height="28" fill="white" transform="translate(97.5 40.5)"/>
</clipPath>
</defs>
</svg>
