<svg width="120" height="24" viewBox="0 0 120 24" fill="none" xmlns="http://www.w3.org/2000/svg">
<path d="M30.8767 9.34468L29.2204 4.04109C29.0544 3.51655 28.6247 3.11847 28.0894 2.99201L15.5026 0.0301627C14.8423 -0.125043 14.1963 0.336263 14.1295 1.01098L14.0627 1.68354C14.0476 1.83443 13.906 1.94006 13.7573 1.91132L11.8431 1.54342C10.9176 1.36522 10.0194 1.96162 9.82396 2.88351L8.02257 11.3796C7.84293 12.2275 8.45082 13.0387 9.31523 13.1048L22.0773 14.0756C22.308 14.0928 22.4991 13.8988 22.4776 13.6682L22.3576 12.3963L11.4055 11.2955C10.863 11.2409 10.4757 10.743 10.5569 10.2041L11.6052 3.40877C11.6548 3.08614 11.9595 2.86698 12.2814 2.92159L13.8737 3.19248L13.5568 6.76869C13.4878 7.46352 13.9822 8.08722 14.6749 8.17848L23.5712 9.36264C23.8306 9.39713 24.0375 9.59689 24.0814 9.85556L25.2935 17.0705C25.3561 17.442 25.0629 17.7783 24.6857 17.766L4.82216 17.1201C4.2114 17.1007 3.78027 16.5136 3.9441 15.9251L7.34929 3.71343L6.76295 3.70193C5.76202 3.68253 4.8624 4.30767 4.53115 5.25184L0.0898137 17.9026C-0.268022 18.9222 0.487888 19.9892 1.56858 19.9899L25.6866 20C26.7982 20.0007 27.6252 18.9739 27.3881 17.8882L26.9678 15.9625C26.9225 15.7555 27.0827 15.5615 27.294 15.5659L28.5859 15.5917C29.4295 15.609 30.0482 14.8042 29.8154 13.993L27.5994 6.29014C27.4427 5.7462 26.9972 5.33447 26.4425 5.22094L17.6583 3.42673C17.5189 3.39799 17.3888 3.50505 17.3895 3.64732L17.3924 4.42335L25.9323 6.03505C26.2909 6.1026 26.5783 6.37205 26.6688 6.72558L28.3107 13.13C28.4084 13.5115 28.1067 13.8787 27.7129 13.8557L26.4921 13.7853L25.5228 9.34612C25.3977 8.772 24.9321 8.3344 24.3515 8.24458L16.0789 6.96485C15.6622 6.90018 15.3618 6.53157 15.3834 6.1105L15.6622 1.71946C15.6816 1.41839 15.9661 1.2057 16.26 1.27253L27.8889 3.9563C28.1433 4.01522 28.3459 4.20635 28.4192 4.45713L30.166 10.4979L30.2896 10.4606C30.7617 10.3169 31.0254 9.81532 30.8767 9.34468Z" fill="white"/>
<path d="M49.3215 19.1385L44.3077 19.1331C40.7751 19.1293 37.9142 16.3241 37.9182 12.867L38.0061 1.94434C38.0116 1.26935 38.4691 0.678828 39.1316 0.491459L40.8693 0L40.8543 12.7841C40.852 14.7438 42.4735 16.3341 44.4765 16.3364L48.7006 16.341C49.0452 16.3418 49.3246 16.6152 49.3246 16.9523L49.3215 19.1385Z" fill="white"/>
<path d="M50.9869 7.63528L50.9736 19.1408L53.8321 19.144L53.8454 7.63851L50.9869 7.63528Z" fill="white"/>
<path d="M50.9889 5.48279L53.8474 5.48587L53.8521 1.25087L52.01 1.77074C51.4073 1.94122 50.9913 2.48105 50.9905 3.09461L50.9889 5.48279Z" fill="white"/>
<path d="M63.1555 4.77437C61.3393 4.77207 59.6809 5.39484 58.4196 6.50446L58.4275 0.0195007L55.6498 0.827337L55.5454 19.1457L56.8515 19.1472C57.3757 19.148 57.853 18.8508 58.0751 18.3855L58.4063 17.6898C59.6652 18.8025 61.3221 19.4291 63.1382 19.4306C67.3098 19.4352 70.5811 16.22 70.5858 12.1102C70.5905 8.00111 67.3263 4.77898 63.1555 4.77437ZM63.0747 7.5204C65.6859 7.52347 67.7297 9.53845 67.7266 12.1071C67.7234 14.6765 65.6757 16.6861 63.0645 16.6838C60.4532 16.6815 58.4094 14.6658 58.4126 12.0971C58.4157 9.5277 60.4634 7.51809 63.0747 7.5204Z" fill="white"/>
<path d="M94.3666 4.90923C92.9601 4.90769 91.7789 5.27936 90.8637 6.00119L90.6078 5.44139C90.5074 5.22177 90.2845 5.07971 90.0388 5.07971L88.006 5.0774L87.9903 18.571C87.9895 18.9081 88.2689 19.1823 88.6143 19.1823L90.8488 19.1846L90.8582 11.4287C90.8613 9.0636 92.1713 7.65296 94.3642 7.65526H94.5275C94.872 7.65603 95.1522 7.38265 95.1522 7.04477L95.1546 4.90923H94.3666Z" fill="white"/>
<path d="M99.6965 16.3748C99.5144 16.2112 99.4226 15.8357 99.4234 15.2583L99.432 7.67368L104.78 7.67982L103.462 4.90615L99.436 4.90154L99.4399 1.31389L97.743 1.79997C97.0382 2.00193 96.5539 2.63392 96.5531 3.35268L96.539 15.2552C96.5374 16.6835 96.9495 17.7547 97.7634 18.4412C98.4761 19.041 99.4501 19.3359 100.765 19.3374C101.309 19.3382 101.911 19.2882 102.576 19.1899L102.714 19.1692C103.02 19.1239 103.245 18.8674 103.245 18.5656L103.247 16.457L102.391 16.5299C101.178 16.6328 100.058 16.6989 99.6965 16.3748Z" fill="white"/>
<path d="M116.296 6.20832L112.837 14.8334L108.796 6.0962C108.447 5.34135 107.679 4.85681 106.832 4.85527L105.109 4.85297L111.197 18.0748C111.303 18.3051 111.307 18.5678 111.21 18.802C110.78 19.7872 109.905 21.2977 108.171 21.2738L108.167 21.2746L106.741 21.2731L107.867 23.6467C107.969 23.8617 108.188 23.9991 108.431 23.9999C110.738 24.0022 112.82 22.3643 113.927 19.6367L119.918 4.87063L118.308 4.86909C117.418 4.86756 116.62 5.39895 116.296 6.20832Z" fill="white"/>
<path d="M80.9717 16.3706C78.8376 17.0802 76.8425 16.462 75.6754 14.7964L86.5733 11.1727C86.5733 11.1727 86.1518 9.99393 86.111 9.87567C85.4776 8.05343 84.2414 6.54987 82.6301 5.64298C80.8995 4.66927 78.8761 4.48882 76.9327 5.13463C74.9502 5.79426 73.3946 7.10891 72.554 8.83746C71.7291 10.5322 71.6388 12.5134 72.2997 14.4155C73.696 18.4363 77.7129 20.3553 81.8507 18.98C83.6465 18.3825 85.0797 17.2714 85.9501 15.8638L85.2625 15.1589C84.6307 14.5107 83.5845 14.533 82.9511 15.1796C82.448 15.691 81.7738 16.1034 80.9717 16.3706ZM77.8361 7.73475C78.8478 7.39841 79.9137 7.4322 80.8367 7.82997C81.609 8.16324 82.2659 8.73687 82.7667 9.51015L74.7492 12.1763C74.597 10.1513 75.7641 8.42433 77.8361 7.73475Z" fill="white"/>
</svg>
