<?xml version="1.0" encoding="UTF-8"?>
<svg id="Layer_1" xmlns="http://www.w3.org/2000/svg" version="1.1" viewBox="0 0 422 115">
  <!-- Generator: Adobe Illustrator 29.0.1, SVG Export Plug-In . SVG Version: 2.1.0 Build 192)  -->
  <defs>
    <style>
      .st0 {
        fill: #ec5e00;
      }

      .st1 {
        fill: #1f89ff;
      }

      .st2 {
        fill: #fff;
      }

      .st3 {
        fill: #222221;
      }
    </style>
  </defs>
  <rect class="st2" width="422" height="115"/>
  <path d="M112.5,31.7c-2.8,0-4.8-1.9-4.8-4.8v-9.2h1.8v9.3c0,1.6,1.3,3,3,3s3-1.4,3-3v-9.3h1.8v9.2c0,2.9-2.1,4.8-4.8,4.8ZM119.3,27.5v-1.6h7v1.6h-7ZM128.4,31.5v-13.9h4.5c3,0,5,2.1,5,4.8s-2.1,4.8-5.1,4.8h-2.6v4.2h-1.8ZM132.7,19.3h-2.5v6.3h2.5c2.1,0,3.3-1.4,3.3-3.1s-1.3-3.1-3.3-3.1ZM139.9,31.5v-11.1h1.8v11.1h-1.8ZM139.5,17.7c0-.8.5-1.3,1.3-1.3s1.3.5,1.3,1.3-.5,1.3-1.3,1.3-1.3-.5-1.3-1.3ZM149.5,31.7c-3.3,0-5.8-2.6-5.8-5.8s2.6-5.8,5.8-5.8,4.4,1.4,5.2,3.4l-1.6.7c-.7-1.5-1.9-2.4-3.6-2.4s-4,1.8-4,4.1,1.7,4.1,4,4.1,3-1.1,3.6-2.5l1.7.7c-.9,2-2.7,3.5-5.3,3.5ZM156.7,31.5v-14.1h1.8v9l5.7-6h2.2l-4.5,4.7,4.6,6.4h-2.1l-3.8-5.3-2.2,2.3v3h-1.8Z"/>
  <path class="st1" d="M172.4,31.5v-13.9h2.6l4.2,5.8,4.4-5.8h2.5v13.9h-2.6v-9.7l-4.3,5.7-4.2-5.6v9.6h-2.6ZM192.9,31.7c-3.2,0-5.8-2.6-5.8-5.8s2.5-5.8,5.8-5.8,5.8,2.5,5.8,5.8-2.6,5.8-5.8,5.8ZM192.9,29.3c1.8,0,3.2-1.5,3.2-3.4s-1.4-3.4-3.2-3.4-3.2,1.5-3.2,3.4,1.4,3.4,3.2,3.4ZM206,31.7c-1.5,0-2.8-.6-3.6-1.7v1.4h-2.5v-14.1h2.6v4.4c.8-1,2.1-1.6,3.6-1.6,2.8,0,5.5,2.1,5.5,5.8s-2.8,5.8-5.4,5.8ZM205.6,29.4c1.9,0,3.3-1.5,3.3-3.5s-1.5-3.4-3.3-3.4-3.3,1.5-3.3,3.4,1.4,3.5,3.3,3.5ZM212.5,31.5v-11.1h2.6v11.1h-2.6ZM212.2,17.7c0-1,.6-1.6,1.6-1.6s1.6.6,1.6,1.6-.6,1.6-1.6,1.6-1.6-.6-1.6-1.6ZM216.7,31.5v-14.1h2.6v14.1h-2.6ZM226.2,31.7c-3.5,0-5.9-2.5-5.9-5.8s2.5-5.8,5.8-5.8,5.7,2.4,5.7,5.7v1h-9c.4,1.6,1.6,2.6,3.4,2.6s2.5-.8,3.1-2l2.1,1.2c-1,1.8-2.7,3-5.2,3ZM226.1,22.4c-1.5,0-2.7.9-3.2,2.3h6.3c-.4-1.5-1.5-2.3-3.1-2.3ZM242.7,31.7c-2.9,0-5-1.7-5-5v-9.1h2.6v9.2c0,1.4,1,2.4,2.4,2.4s2.4-1.1,2.4-2.4v-9.2h2.6v9.1c0,3.2-2.1,5-5,5ZM249.2,31.5v-14.1h2.6v14.1h-2.6ZM252.9,22.7v-2.3h1.9v-1.7l2.6-1.8v3.5h2.3v2.3h-2.3v4.2c0,1.9.3,2.2,2.3,2.2v2.4h-.4c-3.4,0-4.5-1.1-4.5-4.6v-4.2h-1.9ZM260.9,31.5v-11.1h2.6v11.1h-2.6ZM260.6,17.7c0-1,.6-1.6,1.6-1.6s1.6.6,1.6,1.6-.6,1.6-1.6,1.6-1.6-.6-1.6-1.6ZM264.9,31.5v-11.1h2.5v1.3c.7-.9,1.8-1.5,3.2-1.5s2.9.7,3.6,1.9c.8-1.2,2.1-1.9,3.6-1.9,3,0,4.5,1.7,4.5,4.7v6.7h-2.6v-6.5c0-1.6-.8-2.6-2.4-2.6s-2.5,1-2.5,2.9v6.2h-2.6v-6.6c0-1.6-.8-2.6-2.3-2.6s-2.5,1-2.5,3v6.2h-2.6ZM289,31.7c-2.7,0-5.5-2.1-5.5-5.8s2.7-5.8,5.5-5.8,2.8.6,3.6,1.6v-1.3h2.6v11.1h-2.6v-1.4c-.8,1-2.1,1.7-3.6,1.7ZM289.4,29.4c1.9,0,3.3-1.5,3.3-3.5s-1.4-3.4-3.3-3.4-3.4,1.5-3.4,3.4,1.5,3.5,3.4,3.5ZM296.2,22.7v-2.3h1.9v-1.7l2.6-1.8v3.5h2.3v2.3h-2.3v4.2c0,1.9.3,2.2,2.3,2.2v2.4h-.4c-3.4,0-4.5-1.1-4.5-4.6v-4.2h-1.9ZM309.4,31.7c-3.5,0-5.9-2.5-5.9-5.8s2.5-5.8,5.8-5.8,5.7,2.4,5.7,5.7v1h-9c.4,1.6,1.6,2.6,3.4,2.6s2.5-.8,3.1-2l2.1,1.2c-1,1.8-2.7,3-5.2,3ZM309.3,22.4c-1.5,0-2.7.9-3.2,2.3h6.3c-.4-1.5-1.5-2.3-3.1-2.3Z"/>
  <path class="st3" d="M46.2,51.7c0-.4,0-.8,0-1,.1-.6.6-1.3,1.8-1.3s1.8.7,1.8,1.8v1.2h4.9v-1.4c0-4.3-3.8-5-6.6-5s-6.3,1.2-6.8,4.4c-.1.9-.2,1.7,0,2.6.8,4,7.8,5.2,8.8,7.7.2.5.1,1.1,0,1.4-.2.7-.6,1.3-1.9,1.3s-2-.7-2-1.8v-1.9h-5.3v1.5c0,4.4,3.4,5.7,7.1,5.7s6.4-1.2,6.9-4.5c.2-1.7,0-2.8,0-3.2-.8-4.1-8.3-5.3-8.8-7.6h0ZM109.9,51.7c0-.4,0-.8,0-1,.1-.6.6-1.3,1.8-1.3s1.8.7,1.8,1.8v1.2h4.8v-1.4c0-4.2-3.8-4.9-6.5-4.9s-6.3,1.1-6.8,4.3c-.1.9-.2,1.6,0,2.6.8,4,7.7,5.1,8.7,7.6.2.5.1,1.1,0,1.4-.2.7-.6,1.3-1.9,1.3s-2-.7-2-1.8v-1.9h-5.2v1.5c0,4.3,3.4,5.6,7,5.6s6.4-1.2,6.8-4.4c.2-1.7,0-2.8,0-3.2-.8-4.1-8.2-5.3-8.7-7.6h0ZM154.4,62.4l-4.6-15.8h-7.3v19.4h4.8l-.3-16.3,5,16.3h7v-19.4h-4.8l.3,15.8h0ZM62,46.6l-3.6,19.6h5.3l2.7-18.2,2.7,18.2h5.3l-3.6-19.6h-8.7ZM91.6,46.6l-2.5,15.3-2.5-15.3h-8l-.4,19.6h4.9v-18.2c.1,0,3.5,18.2,3.5,18.2h5l3.4-18.2v18.2h5l-.4-19.6h-8ZM137.1,46.6h-5v14.5c0,.3,0,.5,0,.7-.1.5-.5,1.4-1.9,1.4s-1.8-.9-1.9-1.4c0-.2,0-.5,0-.7v-14.5h-5v14.1c0,.4,0,1.1,0,1.3.3,3.7,3.2,4.8,6.8,4.8s6.5-1.2,6.8-4.8c0-.2,0-.9,0-1.3v-14.1h0ZM171.1,55.2v2.9h2v2.8c0,.3,0,.5,0,.7,0,.5-.6,1.4-2,1.4s-1.9-.9-2-1.4c0-.2,0-.5,0-.7v-9c0-.3,0-.7,0-.9,0-.5.5-1.4,1.9-1.4s1.9,1,2,1.4c0,.3,0,.8,0,.8v1.1h4.9v-.6s0-.7,0-1.3c-.4-3.7-3.4-4.8-6.9-4.8s-6.4,1.2-6.9,4.8c0,.3-.1.9-.1,1.3v8.2c0,.4,0,.6,0,1.3.3,3.6,3.4,4.8,6.9,4.8s6.6-1.3,6.9-4.8c0-.7,0-.9,0-1.3v-5.3h-6.9Z"/>
  <path d="M202.2,67.8c-7.3,0-12.1-5.5-12.1-12s5-12,11.9-12,8.6,2.5,10.6,6l-3.8,2.3c-1.5-2.7-3.7-4.1-6.8-4.1-4.4,0-7.6,3.6-7.6,7.8s3.3,7.8,7.8,7.8,5.9-2,6.8-5.1h-7.5v-4.2h12.1v1.7c0,6.3-4.4,11.7-11.4,11.7ZM224.5,67.9c-4.5,0-9.2-3.6-9.2-9.7s4.5-9.8,9.3-9.8,4.6,1,6,2.6v-2.2h4.3v18.7h-4.3v-2.4c-1.4,1.8-3.6,2.8-6.1,2.8ZM225.2,63.9c3.2,0,5.6-2.6,5.6-5.8s-2.4-5.8-5.6-5.8-5.7,2.5-5.7,5.8,2.5,5.8,5.7,5.8ZM237.3,67.5v-23.7h4.4v23.7h-4.4ZM252.8,67.9c-4.5,0-9.2-3.6-9.2-9.7s4.5-9.8,9.3-9.8,4.6,1,6,2.6v-2.2h4.3v18.7h-4.3v-2.4c-1.4,1.8-3.6,2.8-6.1,2.8ZM253.5,63.9c3.2,0,5.6-2.6,5.6-5.8s-2.4-5.8-5.6-5.8-5.7,2.5-5.7,5.8,2.5,5.8,5.7,5.8ZM264.3,67.5l7-9.5-6.8-9.2h5.3l4.3,6,4.2-6h5.1l-6.7,9.2,7.2,9.5h-5.3l-4.6-6.2-4.4,6.2h-5.3ZM287.7,76.1l3.9-9.6-7.7-17.8h4.6l5.2,12.6,4.9-12.6h4.5l-11.2,27.4h-4.4ZM320.6,67.8c-4.2,0-7-1.8-9.1-4.2l4-3.1c1.2,2,3,3.2,5.1,3.2s3.6-1.5,3.6-3.1-2.4-2.6-4.9-3.4c-3.2-1-6.6-2.2-6.6-6.7s3.3-6.7,7.7-6.7,6,1.4,7.8,3.4l-3.6,2.7c-1-1.5-2.4-2.2-4.2-2.2s-3.3,1.2-3.3,2.7,2.2,2.4,4.8,3.3c3.2,1,6.8,2.4,6.8,6.9s-2.9,7.3-8.1,7.3ZM330.6,67.5v-4.1c0-4,3.2-6.4,6.1-8.4,2.3-1.6,4.4-2.9,4.4-4.7s-1.1-2.8-3.2-2.8-3.3,1.4-4.1,3.3l-3.7-1.9c1.4-3.2,4-5.2,7.9-5.2s7.6,2.9,7.6,6.6-3,5.8-5.8,7.6c-2.4,1.6-4.8,3.1-4.8,5.3h10.5v4.2h-14.9ZM357.7,67.5v-5.4h-10v-4l9.8-14h4.4v14h3.4v4h-3.4v5.4h-4.2ZM352.4,58.2h5.3v-7.5l-5.3,7.5ZM367.7,57.7v-3.7h4.1v-4.1h3.6v4.1h4.1v3.7h-4.1v4.1h-3.6v-4.1h-4.1Z"/>
  <path class="st0" d="M136.5,78.5h149c5.8,0,10.5,4.7,10.5,10.5h0c0,5.8-4.7,10.5-10.5,10.5h-149c-5.8,0-10.5-4.7-10.5-10.5h0c0-5.8,4.7-10.5,10.5-10.5Z"/>
  <path class="st2" d="M139.9,94.7c-1.3,0-2.4-.5-3.1-1.3v5.4h-2.1v-13.7h2.1v1.2c.7-.9,1.8-1.4,3-1.4,2.4,0,4.6,1.8,4.6,4.9s-2.3,4.9-4.6,4.9ZM139.6,92.7c1.6,0,2.8-1.3,2.8-2.9s-1.2-2.9-2.8-2.9-2.8,1.3-2.8,2.9,1.2,2.9,2.8,2.9ZM150,94.7c-2.7,0-4.8-2.2-4.8-4.9s2.1-4.9,4.8-4.9,4.8,2.1,4.8,4.9-2.2,4.9-4.8,4.9ZM150,92.7c1.5,0,2.7-1.3,2.7-2.8s-1.2-2.8-2.7-2.8-2.7,1.3-2.7,2.8,1.2,2.8,2.7,2.8ZM155.8,94.5v-9.4h2.1v1.4c.4-.9,1.2-1.4,2.4-1.4s1.2.2,1.6.4l-.8,2c-.3-.2-.7-.4-1.3-.4-1.3,0-1.9.7-1.9,2.3v5h-2.2ZM166.6,94.5v-9.4h2.1v1.2c.6-.8,1.6-1.3,2.8-1.3,2.4,0,3.7,1.5,3.7,4v5.6h-2.2v-5.3c0-1.5-.7-2.4-2.1-2.4s-2.2.9-2.2,2.5v5.1h-2.2ZM185,85.1v9.4h-2.1v-1.1c-.6.8-1.5,1.3-2.7,1.3-2.2,0-3.6-1.5-3.6-4v-5.6h2.2v5.3c0,1.5.6,2.4,2,2.4s2.1-.9,2.1-2.5v-5.1h2.2ZM190.9,94.7c-2.9,0-4.9-2.1-4.9-4.8s2.1-4.9,4.9-4.9,4.8,2,4.8,4.8v.8h-7.6c.3,1.3,1.3,2.2,2.9,2.2s2.1-.6,2.6-1.6l1.8,1c-.8,1.5-2.3,2.5-4.4,2.5ZM190.8,86.9c-1.3,0-2.3.8-2.7,1.9h5.3c-.3-1.3-1.3-1.9-2.6-1.9ZM200.1,94.7c-2.1,0-3.4-.8-4.2-2.3l2-1c.4.9,1.2,1.4,2.3,1.4s1.6-.5,1.6-1.1-1-.8-2.2-1.1c-1.6-.3-3.3-.8-3.3-2.8s1.5-2.9,3.7-2.9,3.1.7,3.8,1.9l-1.8.9c-.4-.7-1.1-1.1-2-1.1s-1.5.5-1.5,1,.7.8,2.1,1.1c1.5.3,3.3.8,3.3,2.8s-1.2,3.1-3.8,3.1ZM204.4,87.1v-1.9h1.6v-1.4l2.2-1.5v2.9h1.9v1.9h-1.9v3.5c0,1.6.2,1.9,1.9,1.9v2h-.3c-2.9,0-3.8-.9-3.8-3.9v-3.5h-1.6ZM211.1,94.5v-9.4h2.1v1.4c.4-.9,1.2-1.4,2.4-1.4s1.2.2,1.6.4l-.8,2c-.3-.2-.7-.4-1.3-.4-1.3,0-1.9.7-1.9,2.3v5h-2.2ZM222,94.7c-2.3,0-4.6-1.8-4.6-4.9s2.3-4.9,4.6-4.9,2.3.5,3,1.3v-1.1h2.2v9.4h-2.2v-1.2c-.7.9-1.8,1.4-3,1.4ZM222.3,92.7c1.6,0,2.8-1.3,2.8-2.9s-1.2-2.9-2.8-2.9-2.8,1.3-2.8,2.9,1.2,2.9,2.8,2.9ZM236.9,94.7c-2.7,0-4.9-2.2-4.9-4.9s2.1-4.9,4.9-4.9,3.7,1.2,4.5,2.9l-1.9.8c-.4-1-1.4-1.7-2.5-1.7s-2.8,1.3-2.8,2.8,1.2,2.8,2.8,2.8,2.1-.7,2.5-1.7l1.9.8c-.7,1.7-2.3,2.9-4.5,2.9ZM250.6,85.1v9.4h-2.1v-1.1c-.6.8-1.5,1.3-2.7,1.3-2.2,0-3.6-1.5-3.6-4v-5.6h2.2v5.3c0,1.5.6,2.4,2,2.4s2.1-.9,2.1-2.5v-5.1h2.2ZM256.5,94.7c-2.9,0-4.9-2.1-4.9-4.8s2.1-4.9,4.9-4.9,4.8,2,4.8,4.8v.8h-7.6c.3,1.3,1.3,2.2,2.9,2.2s2.1-.6,2.6-1.6l1.8,1c-.8,1.5-2.3,2.5-4.4,2.5ZM256.4,86.9c-1.3,0-2.3.8-2.7,1.9h5.3c-.3-1.3-1.3-1.9-2.6-1.9ZM262.2,94.5v-9.4h2.1v1.2c.6-.8,1.6-1.3,2.8-1.3,2.4,0,3.7,1.5,3.7,4v5.6h-2.2v-5.3c0-1.5-.7-2.4-2.1-2.4s-2.2.9-2.2,2.5v5.1h-2.2ZM271.4,87.1v-1.9h1.6v-1.4l2.2-1.5v2.9h1.9v1.9h-1.9v3.5c0,1.6.2,1.9,1.9,1.9v2h-.3c-2.9,0-3.8-.9-3.8-3.9v-3.5h-1.6ZM282.1,94.7c-2.3,0-4.6-1.8-4.6-4.9s2.3-4.9,4.6-4.9,2.3.5,3,1.3v-1.1h2.2v9.4h-2.2v-1.2c-.7.9-1.8,1.4-3,1.4ZM282.5,92.7c1.6,0,2.8-1.3,2.8-2.9s-1.2-2.9-2.8-2.9-2.8,1.3-2.8,2.9,1.2,2.9,2.8,2.9Z"/>
</svg>